Coordinates
version=1
nRows=17
nColumns=40
inDegrees=yes

Units are S.I. units (second, meters, Newtons, ...)
If the header above contains a line with 'inDegrees', this indicates whether rotational values are in degrees (yes) or radians (no).

endheader
time	pelvis_tilt	pelvis_list	pelvis_rotation	pelvis_tx	pelvis_ty	pelvis_tz	hip_flexion_r	hip_adduction_r	hip_rotation_r	knee_angle_r	knee_angle_r_beta	ankle_angle_r	subtalar_angle_r	mtp_angle_r	hip_flexion_l	hip_adduction_l	hip_rotation_l	knee_angle_l	knee_angle_l_beta	ankle_angle_l	subtalar_angle_l	mtp_angle_l	lumbar_extension	lumbar_bending	lumbar_rotation	arm_flex_r	arm_add_r	arm_rot_r	elbow_flex_r	pro_sup_r	wrist_flex_r	wrist_dev_r	arm_flex_l	arm_add_l	arm_rot_l	elbow_flex_l	pro_sup_l	wrist_flex_l	wrist_dev_l
      7.85833333	      6.60773172	     -1.90908269	     -1.39212063	     -0.40296209	      1.20142202	      0.02091054	     31.20546060	     -1.75250425	     -0.57967241	     58.93172673	      1.02855267	     -4.20404811	    -25.79634170	      0.00000000	     67.17325669	     -0.28865079	     12.91388291	     94.05443581	      1.64155958	     12.98470570	    -29.34991077	      0.00000000	    -69.27114291	      0.86383667	      6.22502447	     80.14200311	    -11.04415689	      8.91794226	     47.19518106	      7.83685755	      0.00000000	      0.00000000	     89.88207243	     -1.55445902	     32.25342540	     27.52854665	     83.02508111	      0.00000000	      0.00000000
      7.86666667	      6.73354004	     -2.18315744	     -1.32575007	     -0.40329141	      1.20165368	      0.02081529	     31.97378388	     -1.69384924	     -0.78166284	     61.40745488	      1.07176227	     -3.73845614	    -25.41757843	      0.00000000	     66.00283020	     -0.48304739	     13.11492141	     91.67894806	      1.60009950	     12.83805336	    -29.48643988	      0.00000000	    -69.42348977	      1.08761964	      6.47631367	     80.31004188	    -11.08236233	      9.21794806	     47.00214223	      7.55749919	      0.00000000	      0.00000000	     89.88339305	     -1.58351492	     32.18363699	     27.59683326	     83.36709257	      0.00000000	      0.00000000
      7.87500000	      6.93403909	     -2.40420290	     -1.32047572	     -0.40343950	      1.20197284	      0.02075865	     32.72692698	     -1.58280455	     -0.79214706	     63.89153246	      1.11511761	     -3.52421822	    -25.53222683	      0.00000000	     64.59450757	     -0.78087192	     13.19275083	     89.22154528	      1.55720973	     12.57217261	    -30.01613997	      0.00000000	    -69.63723519	      1.23244628	      6.69892058	     80.41784094	    -11.03306174	      9.21510383	     46.88239473	      7.84699283	      0.00000000	      0.00000000	     89.88417219	     -1.58575115	     32.09803496	     27.60573314	     83.28962050	      0.00000000	      0.00000000
      7.88333333	      7.09967191	     -2.45373736	     -1.32530771	     -0.40363555	      1.20228421	      0.02047600	     33.62573028	     -1.73972913	     -0.83184988	     66.47062918	      1.16013134	     -3.34179669	    -25.46227189	      0.00000000	     63.06369731	     -0.93256924	     13.12732580	     86.68784710	      1.51298835	     12.11978672	    -30.76452022	      0.00000000	    -69.81208503	      1.31910140	      6.76118850	     80.49809272	    -10.93366675	      9.09409631	     46.83609578	      8.36719612	      0.00000000	      0.00000000	     89.88553531	     -1.53223237	     31.79497537	     27.51108436	     83.31917340	      0.00000000	      0.00000000
      7.89166667	      7.32210531	     -3.08238788	     -1.22927010	     -0.40361352	      1.20258166	      0.02073166	     34.42576570	     -1.30939924	     -1.22019477	     68.91702869	      1.20282906	     -3.29099870	    -25.43870997	      0.00000000	     61.55301730	     -1.53926571	     13.51562092	     84.11889432	      1.46815167	     11.88874083	    -30.65684980	      0.00000000	    -70.05479566	      1.71839388	      7.31148270	     80.57113505	    -10.85317198	      9.13333612	     46.83640148	      8.33886630	      0.00000000	      0.00000000	     89.88396195	     -1.58965268	     31.76426781	     27.50940745	     83.31271217	      0.00000000	      0.00000000
      7.90000000	      7.56659510	     -3.09468788	     -1.35314076	     -0.40358876	      1.20295511	      0.02055725	     35.36793024	     -1.42169673	     -1.08096060	     71.50153652	      1.24793723	     -3.19091140	    -25.35256996	      0.00000000	     59.71454652	     -1.87839410	     13.29825309	     81.40911801	      1.42085715	     11.55309837	    -30.72972422	      0.00000000	    -70.28677639	      1.68908979	      7.39617614	     80.73356260	    -10.86432794	      9.35469821	     46.56389961	      8.14494917	      0.00000000	      0.00000000	     89.88718406	     -1.55293938	     31.75299839	     27.34094226	     83.24228841	      0.00000000	      0.00000000
      7.90833333	      7.76930376	     -3.21819739	     -1.37888042	     -0.40350383	      1.20333228	      0.02035082	     36.38101015	     -1.49783626	     -1.09738325	     74.03547835	      1.29216286	     -2.98359787	    -24.91286895	      0.00000000	     57.91026874	     -2.19083719	     13.20081619	     78.70232244	      1.37361466	     10.82749388	    -31.51690865	      0.00000000	    -70.48511486	      1.78174782	      7.55830079	     80.79206107	    -10.87922497	      9.50245808	     46.52571882	      7.79568842	      0.00000000	      0.00000000	     89.88581056	     -1.47650861	     31.62328068	     27.21847890	     83.16499469	      0.00000000	      0.00000000
      7.91666667	      7.91382872	     -3.46133046	     -1.38184253	     -0.40350533	      1.20363745	      0.02023296	     37.51897187	     -1.43444578	     -1.13795426	     76.54948630	      1.33604058	     -3.00682907	    -24.73680819	      0.00000000	     56.12671720	     -2.60159363	     13.21774730	     76.00655237	      1.32656459	     10.31221609	    -31.69628176	      0.00000000	    -70.64779619	      1.96325693	      7.79880805	     80.91931566	    -10.82211094	      9.62071931	     46.39021890	      7.73960566	      0.00000000	      0.00000000	     89.88587165	     -1.43107530	     31.36327167	     27.07124138	     83.13796190	      0.00000000	      0.00000000
      7.92500000	      8.07581542	     -4.07248054	     -1.27210051	     -0.40333222	      1.20380820	      0.02018982	     38.56016219	     -1.06760878	     -1.44395608	     78.98304315	      1.37851416	     -2.80929310	    -24.63323913	      0.00000000	     54.34616411	     -3.37083374	     13.41173308	     73.31608367	      1.27960705	      9.89303073	    -31.50650748	      0.00000000	    -70.83352327	      2.41629784	      8.36082727	     81.01995377	    -10.73984748	      9.67146429	     46.31202018	      7.74213815	      0.00000000	      0.00000000	     89.88567537	     -1.41715704	     31.34171571	     26.89976760	     83.14404168	      0.00000000	      0.00000000
      7.93333333	      8.50182356	     -4.09753706	     -1.57579920	     -0.40292710	      1.20460021	      0.02033563	     39.46649785	     -1.04973891	     -1.14998226	     81.39193029	      1.42055717	     -2.57131111	    -24.12002243	      0.00000000	     51.99365816	     -3.90670528	     12.94251302	     70.44893803	      1.22956592	      9.26312983	    -31.96995367	      0.00000000	    -71.26159993	      2.22820572	      8.47795892	     81.17440648	    -10.62667514	      9.80273243	     46.10816680	      7.74390485	      0.00000000	      0.00000000	     89.88532190	     -1.40226260	     31.07071722	     26.74159930	     83.13047208	      0.00000000	      0.00000000
      7.94166667	      8.52390395	     -4.64148659	     -1.39921979	     -0.40283411	      1.20469981	      0.02019322	     40.74308403	     -0.82030094	     -1.55788742	     83.58103361	      1.45876423	     -2.48903339	    -23.96909082	      0.00000000	     50.26230682	     -4.51153227	     13.20822229	     67.73867736	      1.18226295	      8.73839344	    -31.81239169	      0.00000000	    -71.31597747	      2.71516792	      8.97320745	     81.24411062	    -10.54648085	      9.83544688	     46.03853592	      7.75156497	      0.00000000	      0.00000000	     89.88530288	     -1.37089752	     31.05999469	     26.54158095	     83.14326112	      0.00000000	      0.00000000
      7.95000000	      8.52702800	     -4.40282879	     -1.46768643	     -0.40282063	      1.20493393	      0.01970144	     42.26023806	     -1.26280480	     -1.25375079	     85.94638590	      1.50004741	     -2.13136079	    -22.89129892	      0.00000000	     48.25733716	     -4.57114538	     12.77275362	     64.77878165	      1.13060303	      7.66969119	    -32.57150807	      0.00000000	    -71.31604926	      2.67032326	      8.78301134	     81.32437226	    -10.39916898	      9.78469098	     45.88986862	      7.82594970	      0.00000000	      0.00000000	     89.88591149	     -1.31106926	     30.75316074	     26.35609415	     83.15508141	      0.00000000	      0.00000000
      7.95833333	      8.63382289	     -5.09370677	     -1.40364218	     -0.40235911	      1.20491516	      0.01988718	     43.46884431	     -0.77582094	     -1.62025860	     88.01038500	      1.53607099	     -1.97766322	    -22.69144636	      0.00000000	     46.45963224	     -5.42357506	     12.93875411	     62.17489444	      1.08515662	      6.88582380	    -32.38156974	      0.00000000	    -71.41911399	      3.10594832	      9.44995762	     81.34062637	    -10.31814961	      9.81043071	     45.82098749	      7.84145353	      0.00000000	      0.00000000	     89.88369685	     -1.25472010	     30.83232305	     26.02069519	     83.17964242	      0.00000000	      0.00000000
      7.96666667	      8.97327480	     -5.27961377	     -1.59745237	     -0.40191800	      1.20577057	      0.02000661	     44.56721121	     -0.69987270	     -1.51404617	     90.04289478	      1.57154498	     -1.78775361	    -21.93836712	      0.00000000	     44.16654227	     -6.01376889	     12.59478293	     59.55534025	      1.03943677	      5.73081365	    -32.92618262	      0.00000000	    -71.78253541	      3.08403642	      9.69725566	     81.41740731	    -10.16895793	      9.76879897	     45.70037286	      7.94207851	      0.00000000	      0.00000000	     89.88341813	     -1.25299105	     30.70231122	     25.85626238	     83.17710491	      0.00000000	      0.00000000
      7.97500000	      8.91488917	     -5.86432794	     -1.44833157	     -0.40172710	      1.20567656	      0.02000563	     46.07608973	     -0.49942414	     -2.00699968	     92.02204142	      1.60608761	     -1.56860430	    -21.87987376	      0.00000000	     42.48172169	     -6.71300986	     12.81221295	     57.02526574	      0.99527864	      5.06057514	    -32.69106242	      0.00000000	    -71.75763708	      3.58143414	     10.21695300	     81.45148660	    -10.05287672	      9.82401350	     45.63021472	      7.96599067	      0.00000000	      0.00000000	     89.88054923	     -1.28252765	     30.73642626	     25.60835822	     83.19464109	      0.00000000	      0.00000000
      7.98333333	      8.88522318	     -6.37922527	     -1.32236779	     -0.40139713	      1.20561313	      0.02005157	     47.58349517	     -0.36661559	     -2.44908246	     93.96752106	      1.64004263	     -1.17548543	    -21.88024794	      0.00000000	     40.78809903	     -7.41827447	     12.84421580	     54.58611005	      0.95270735	      4.16180762	    -32.41777286	      0.00000000	    -71.73059346	      4.00032740	     10.71115179	     81.43659826	     -9.97968263	      9.84997513	     45.56949806	      7.99456234	      0.00000000	      0.00000000	     89.87761742	     -1.24090031	     30.78995356	     25.31807585	     83.20639665	      0.00000000	      0.00000000
      7.99166667	      9.15096373	     -6.34277309	     -1.56196341	     -0.40090429	      1.20627339	      0.02004153	     48.83727830	     -0.42629979	     -2.11991779	     95.90656275	      1.67388529	     -0.15414816	    -21.16029444	      0.00000000	     38.59329545	     -7.83944937	     12.15665495	     52.09151964	      0.90916853	      2.57038136	    -32.93024262	      0.00000000	    -72.00395145	      3.87808949	     10.75720876	     81.46041144	     -9.81147053	      9.74388307	     45.53576284	      8.17072966	      0.00000000	      0.00000000	     89.87768009	     -1.30315076	     30.93255201	     25.16070097	     83.13969415	      0.00000000	      0.00000000
